<?xml version="1.0" encoding="utf-8" standalone="no"?>
<!DOCTYPE svg PUBLIC "-//W3C//DTD SVG 1.1//EN"
  "http://www.w3.org/Graphics/SVG/1.1/DTD/svg11.dtd">
<!-- Created with matplotlib (http://matplotlib.org/) -->
<svg height="345.6pt" version="1.1" viewBox="0 0 460.8 345.6" width="460.8pt" xmlns="http://www.w3.org/2000/svg" xmlns:xlink="http://www.w3.org/1999/xlink">
 <defs>
  <style type="text/css">
*{stroke-linecap:butt;stroke-linejoin:round;}
  </style>
 </defs>
 <g id="figure_1">
  <g id="patch_1">
   <path d="M 0 345.6 
L 460.8 345.6 
L 460.8 0 
L 0 0 
z
" style="fill:#ffffff;"/>
  </g>
  <g id="axes_1">
   <g id="patch_2">
    <path d="M 30.58 317.72 
L 447.48 317.72 
L 447.48 13.32 
L 30.58 13.32 
z
" style="fill:#ffffff;"/>
   </g>
   <g id="matplotlib.axis_1">
    <g id="xtick_1">
     <g id="line2d_1">
      <defs>
       <path d="M 0 0 
L 0 3.5 
" id="m212dce54e5" style="stroke:#000000;stroke-width:0.8;"/>
      </defs>
      <g>
       <use style="stroke:#000000;stroke-width:0.8;" x="49.53" xlink:href="#m212dce54e5" y="317.72"/>
      </g>
     </g>
     <g id="text_1">
      <!-- 0 -->
      <defs>
       <path d="M 31.78125 66.40625 
Q 24.171875 66.40625 20.328125 58.90625 
Q 16.5 51.421875 16.5 36.375 
Q 16.5 21.390625 20.328125 13.890625 
Q 24.171875 6.390625 31.78125 6.390625 
Q 39.453125 6.390625 43.28125 13.890625 
Q 47.125 21.390625 47.125 36.375 
Q 47.125 51.421875 43.28125 58.90625 
Q 39.453125 66.40625 31.78125 66.40625 
z
M 31.78125 74.21875 
Q 44.046875 74.21875 50.515625 64.515625 
Q 56.984375 54.828125 56.984375 36.375 
Q 56.984375 17.96875 50.515625 8.265625 
Q 44.046875 -1.421875 31.78125 -1.421875 
Q 19.53125 -1.421875 13.0625 8.265625 
Q 6.59375 17.96875 6.59375 36.375 
Q 6.59375 54.828125 13.0625 64.515625 
Q 19.53125 74.21875 31.78125 74.21875 
z
" id="DejaVuSans-30"/>
      </defs>
      <g transform="translate(46.34875 332.318437)scale(0.1 -0.1)">
       <use xlink:href="#DejaVuSans-30"/>
      </g>
     </g>
    </g>
    <g id="xtick_2">
     <g id="line2d_2">
      <g>
       <use style="stroke:#000000;stroke-width:0.8;" x="122.414615" xlink:href="#m212dce54e5" y="317.72"/>
      </g>
     </g>
     <g id="text_2">
      <!-- 50 -->
      <defs>
       <path d="M 10.796875 72.90625 
L 49.515625 72.90625 
L 49.515625 64.59375 
L 19.828125 64.59375 
L 19.828125 46.734375 
Q 21.96875 47.46875 24.109375 47.828125 
Q 26.265625 48.1875 28.421875 48.1875 
Q 40.625 48.1875 47.75 41.5 
Q 54.890625 34.8125 54.890625 23.390625 
Q 54.890625 11.625 47.5625 5.09375 
Q 40.234375 -1.421875 26.90625 -1.421875 
Q 22.3125 -1.421875 17.546875 -0.640625 
Q 12.796875 0.140625 7.71875 1.703125 
L 7.71875 11.625 
Q 12.109375 9.234375 16.796875 8.0625 
Q 21.484375 6.890625 26.703125 6.890625 
Q 35.15625 6.890625 40.078125 11.328125 
Q 45.015625 15.765625 45.015625 23.390625 
Q 45.015625 31 40.078125 35.4375 
Q 35.15625 39.890625 26.703125 39.890625 
Q 22.75 39.890625 18.8125 39.015625 
Q 14.890625 38.140625 10.796875 36.28125 
z
" id="DejaVuSans-35"/>
      </defs>
      <g transform="translate(116.052115 332.318437)scale(0.1 -0.1)">
       <use xlink:href="#DejaVuSans-35"/>
       <use x="63.623047" xlink:href="#DejaVuSans-30"/>
      </g>
     </g>
    </g>
    <g id="xtick_3">
     <g id="line2d_3">
      <g>
       <use style="stroke:#000000;stroke-width:0.8;" x="195.299231" xlink:href="#m212dce54e5" y="317.72"/>
      </g>
     </g>
     <g id="text_3">
      <!-- 100 -->
      <defs>
       <path d="M 12.40625 8.296875 
L 28.515625 8.296875 
L 28.515625 63.921875 
L 10.984375 60.40625 
L 10.984375 69.390625 
L 28.421875 72.90625 
L 38.28125 72.90625 
L 38.28125 8.296875 
L 54.390625 8.296875 
L 54.390625 0 
L 12.40625 0 
z
" id="DejaVuSans-31"/>
      </defs>
      <g transform="translate(185.755481 332.318437)scale(0.1 -0.1)">
       <use xlink:href="#DejaVuSans-31"/>
       <use x="63.623047" xlink:href="#DejaVuSans-30"/>
       <use x="127.246094" xlink:href="#DejaVuSans-30"/>
      </g>
     </g>
    </g>
    <g id="xtick_4">
     <g id="line2d_4">
      <g>
       <use style="stroke:#000000;stroke-width:0.8;" x="268.183846" xlink:href="#m212dce54e5" y="317.72"/>
      </g>
     </g>
     <g id="text_4">
      <!-- 150 -->
      <g transform="translate(258.640096 332.318437)scale(0.1 -0.1)">
       <use xlink:href="#DejaVuSans-31"/>
       <use x="63.623047" xlink:href="#DejaVuSans-35"/>
       <use x="127.246094" xlink:href="#DejaVuSans-30"/>
      </g>
     </g>
    </g>
    <g id="xtick_5">
     <g id="line2d_5">
      <g>
       <use style="stroke:#000000;stroke-width:0.8;" x="341.068462" xlink:href="#m212dce54e5" y="317.72"/>
      </g>
     </g>
     <g id="text_5">
      <!-- 200 -->
      <defs>
       <path d="M 19.1875 8.296875 
L 53.609375 8.296875 
L 53.609375 0 
L 7.328125 0 
L 7.328125 8.296875 
Q 12.9375 14.109375 22.625 23.890625 
Q 32.328125 33.6875 34.8125 36.53125 
Q 39.546875 41.84375 41.421875 45.53125 
Q 43.3125 49.21875 43.3125 52.78125 
Q 43.3125 58.59375 39.234375 62.25 
Q 35.15625 65.921875 28.609375 65.921875 
Q 23.96875 65.921875 18.8125 64.3125 
Q 13.671875 62.703125 7.8125 59.421875 
L 7.8125 69.390625 
Q 13.765625 71.78125 18.9375 73 
Q 24.125 74.21875 28.421875 74.21875 
Q 39.75 74.21875 46.484375 68.546875 
Q 53.21875 62.890625 53.21875 53.421875 
Q 53.21875 48.921875 51.53125 44.890625 
Q 49.859375 40.875 45.40625 35.40625 
Q 44.1875 33.984375 37.640625 27.21875 
Q 31.109375 20.453125 19.1875 8.296875 
z
" id="DejaVuSans-32"/>
      </defs>
      <g transform="translate(331.524712 332.318437)scale(0.1 -0.1)">
       <use xlink:href="#DejaVuSans-32"/>
       <use x="63.623047" xlink:href="#DejaVuSans-30"/>
       <use x="127.246094" xlink:href="#DejaVuSans-30"/>
      </g>
     </g>
    </g>
    <g id="xtick_6">
     <g id="line2d_6">
      <g>
       <use style="stroke:#000000;stroke-width:0.8;" x="413.953077" xlink:href="#m212dce54e5" y="317.72"/>
      </g>
     </g>
     <g id="text_6">
      <!-- 250 -->
      <g transform="translate(404.409327 332.318437)scale(0.1 -0.1)">
       <use xlink:href="#DejaVuSans-32"/>
       <use x="63.623047" xlink:href="#DejaVuSans-35"/>
       <use x="127.246094" xlink:href="#DejaVuSans-30"/>
      </g>
     </g>
    </g>
   </g>
   <g id="matplotlib.axis_2">
    <g id="ytick_1">
     <g id="line2d_7">
      <defs>
       <path d="M 0 0 
L -3.5 0 
" id="m313d8ab2eb" style="stroke:#000000;stroke-width:0.8;"/>
      </defs>
      <g>
       <use style="stroke:#000000;stroke-width:0.8;" x="30.58" xlink:href="#m313d8ab2eb" y="312.956662"/>
      </g>
     </g>
     <g id="text_7">
      <!-- 8 -->
      <defs>
       <path d="M 31.78125 34.625 
Q 24.75 34.625 20.71875 30.859375 
Q 16.703125 27.09375 16.703125 20.515625 
Q 16.703125 13.921875 20.71875 10.15625 
Q 24.75 6.390625 31.78125 6.390625 
Q 38.8125 6.390625 42.859375 10.171875 
Q 46.921875 13.96875 46.921875 20.515625 
Q 46.921875 27.09375 42.890625 30.859375 
Q 38.875 34.625 31.78125 34.625 
z
M 21.921875 38.8125 
Q 15.578125 40.375 12.03125 44.71875 
Q 8.5 49.078125 8.5 55.328125 
Q 8.5 64.0625 14.71875 69.140625 
Q 20.953125 74.21875 31.78125 74.21875 
Q 42.671875 74.21875 48.875 69.140625 
Q 55.078125 64.0625 55.078125 55.328125 
Q 55.078125 49.078125 51.53125 44.71875 
Q 48 40.375 41.703125 38.8125 
Q 48.828125 37.15625 52.796875 32.3125 
Q 56.78125 27.484375 56.78125 20.515625 
Q 56.78125 9.90625 50.3125 4.234375 
Q 43.84375 -1.421875 31.78125 -1.421875 
Q 19.734375 -1.421875 13.25 4.234375 
Q 6.78125 9.90625 6.78125 20.515625 
Q 6.78125 27.484375 10.78125 32.3125 
Q 14.796875 37.15625 21.921875 38.8125 
z
M 18.3125 54.390625 
Q 18.3125 48.734375 21.84375 45.5625 
Q 25.390625 42.390625 31.78125 42.390625 
Q 38.140625 42.390625 41.71875 45.5625 
Q 45.3125 48.734375 45.3125 54.390625 
Q 45.3125 60.0625 41.71875 63.234375 
Q 38.140625 66.40625 31.78125 66.40625 
Q 25.390625 66.40625 21.84375 63.234375 
Q 18.3125 60.0625 18.3125 54.390625 
z
" id="DejaVuSans-38"/>
      </defs>
      <g transform="translate(17.2175 316.75588)scale(0.1 -0.1)">
       <use xlink:href="#DejaVuSans-38"/>
      </g>
     </g>
    </g>
    <g id="ytick_2">
     <g id="line2d_8">
      <g>
       <use style="stroke:#000000;stroke-width:0.8;" x="30.58" xlink:href="#m313d8ab2eb" y="275.152389"/>
      </g>
     </g>
     <g id="text_8">
      <!-- 9 -->
      <defs>
       <path d="M 10.984375 1.515625 
L 10.984375 10.5 
Q 14.703125 8.734375 18.5 7.8125 
Q 22.3125 6.890625 25.984375 6.890625 
Q 35.75 6.890625 40.890625 13.453125 
Q 46.046875 20.015625 46.78125 33.40625 
Q 43.953125 29.203125 39.59375 26.953125 
Q 35.25 24.703125 29.984375 24.703125 
Q 19.046875 24.703125 12.671875 31.3125 
Q 6.296875 37.9375 6.296875 49.421875 
Q 6.296875 60.640625 12.9375 67.421875 
Q 19.578125 74.21875 30.609375 74.21875 
Q 43.265625 74.21875 49.921875 64.515625 
Q 56.59375 54.828125 56.59375 36.375 
Q 56.59375 19.140625 48.40625 8.859375 
Q 40.234375 -1.421875 26.421875 -1.421875 
Q 22.703125 -1.421875 18.890625 -0.6875 
Q 15.09375 0.046875 10.984375 1.515625 
z
M 30.609375 32.421875 
Q 37.25 32.421875 41.125 36.953125 
Q 45.015625 41.5 45.015625 49.421875 
Q 45.015625 57.28125 41.125 61.84375 
Q 37.25 66.40625 30.609375 66.40625 
Q 23.96875 66.40625 20.09375 61.84375 
Q 16.21875 57.28125 16.21875 49.421875 
Q 16.21875 41.5 20.09375 36.953125 
Q 23.96875 32.421875 30.609375 32.421875 
z
" id="DejaVuSans-39"/>
      </defs>
      <g transform="translate(17.2175 278.951608)scale(0.1 -0.1)">
       <use xlink:href="#DejaVuSans-39"/>
      </g>
     </g>
    </g>
    <g id="ytick_3">
     <g id="line2d_9">
      <g>
       <use style="stroke:#000000;stroke-width:0.8;" x="30.58" xlink:href="#m313d8ab2eb" y="237.348117"/>
      </g>
     </g>
     <g id="text_9">
      <!-- 10 -->
      <g transform="translate(10.855 241.147336)scale(0.1 -0.1)">
       <use xlink:href="#DejaVuSans-31"/>
       <use x="63.623047" xlink:href="#DejaVuSans-30"/>
      </g>
     </g>
    </g>
    <g id="ytick_4">
     <g id="line2d_10">
      <g>
       <use style="stroke:#000000;stroke-width:0.8;" x="30.58" xlink:href="#m313d8ab2eb" y="199.543845"/>
      </g>
     </g>
     <g id="text_10">
      <!-- 11 -->
      <g transform="translate(10.855 203.343064)scale(0.1 -0.1)">
       <use xlink:href="#DejaVuSans-31"/>
       <use x="63.623047" xlink:href="#DejaVuSans-31"/>
      </g>
     </g>
    </g>
    <g id="ytick_5">
     <g id="line2d_11">
      <g>
       <use style="stroke:#000000;stroke-width:0.8;" x="30.58" xlink:href="#m313d8ab2eb" y="161.739573"/>
      </g>
     </g>
     <g id="text_11">
      <!-- 12 -->
      <g transform="translate(10.855 165.538792)scale(0.1 -0.1)">
       <use xlink:href="#DejaVuSans-31"/>
       <use x="63.623047" xlink:href="#DejaVuSans-32"/>
      </g>
     </g>
    </g>
    <g id="ytick_6">
     <g id="line2d_12">
      <g>
       <use style="stroke:#000000;stroke-width:0.8;" x="30.58" xlink:href="#m313d8ab2eb" y="123.935301"/>
      </g>
     </g>
     <g id="text_12">
      <!-- 13 -->
      <defs>
       <path d="M 40.578125 39.3125 
Q 47.65625 37.796875 51.625 33 
Q 55.609375 28.21875 55.609375 21.1875 
Q 55.609375 10.40625 48.1875 4.484375 
Q 40.765625 -1.421875 27.09375 -1.421875 
Q 22.515625 -1.421875 17.65625 -0.515625 
Q 12.796875 0.390625 7.625 2.203125 
L 7.625 11.71875 
Q 11.71875 9.328125 16.59375 8.109375 
Q 21.484375 6.890625 26.8125 6.890625 
Q 36.078125 6.890625 40.9375 10.546875 
Q 45.796875 14.203125 45.796875 21.1875 
Q 45.796875 27.640625 41.28125 31.265625 
Q 36.765625 34.90625 28.71875 34.90625 
L 20.21875 34.90625 
L 20.21875 43.015625 
L 29.109375 43.015625 
Q 36.375 43.015625 40.234375 45.921875 
Q 44.09375 48.828125 44.09375 54.296875 
Q 44.09375 59.90625 40.109375 62.90625 
Q 36.140625 65.921875 28.71875 65.921875 
Q 24.65625 65.921875 20.015625 65.03125 
Q 15.375 64.15625 9.8125 62.3125 
L 9.8125 71.09375 
Q 15.4375 72.65625 20.34375 73.4375 
Q 25.25 74.21875 29.59375 74.21875 
Q 40.828125 74.21875 47.359375 69.109375 
Q 53.90625 64.015625 53.90625 55.328125 
Q 53.90625 49.265625 50.4375 45.09375 
Q 46.96875 40.921875 40.578125 39.3125 
z
" id="DejaVuSans-33"/>
      </defs>
      <g transform="translate(10.855 127.734519)scale(0.1 -0.1)">
       <use xlink:href="#DejaVuSans-31"/>
       <use x="63.623047" xlink:href="#DejaVuSans-33"/>
      </g>
     </g>
    </g>
    <g id="ytick_7">
     <g id="line2d_13">
      <g>
       <use style="stroke:#000000;stroke-width:0.8;" x="30.58" xlink:href="#m313d8ab2eb" y="86.131028"/>
      </g>
     </g>
     <g id="text_13">
      <!-- 14 -->
      <defs>
       <path d="M 37.796875 64.3125 
L 12.890625 25.390625 
L 37.796875 25.390625 
z
M 35.203125 72.90625 
L 47.609375 72.90625 
L 47.609375 25.390625 
L 58.015625 25.390625 
L 58.015625 17.1875 
L 47.609375 17.1875 
L 47.609375 0 
L 37.796875 0 
L 37.796875 17.1875 
L 4.890625 17.1875 
L 4.890625 26.703125 
z
" id="DejaVuSans-34"/>
      </defs>
      <g transform="translate(10.855 89.930247)scale(0.1 -0.1)">
       <use xlink:href="#DejaVuSans-31"/>
       <use x="63.623047" xlink:href="#DejaVuSans-34"/>
      </g>
     </g>
    </g>
    <g id="ytick_8">
     <g id="line2d_14">
      <g>
       <use style="stroke:#000000;stroke-width:0.8;" x="30.58" xlink:href="#m313d8ab2eb" y="48.326756"/>
      </g>
     </g>
     <g id="text_14">
      <!-- 15 -->
      <g transform="translate(10.855 52.125975)scale(0.1 -0.1)">
       <use xlink:href="#DejaVuSans-31"/>
       <use x="63.623047" xlink:href="#DejaVuSans-35"/>
      </g>
     </g>
    </g>
   </g>
   <g id="line2d_15">
    <path clip-path="url(#p19955fdd7a)" d="M 49.53 233.56769 
L 50.987692 219.580109 
L 52.445385 226.384878 
L 53.903077 229.787263 
L 55.360769 219.202067 
L 56.818462 220.714237 
L 58.276154 219.580109 
L 59.733846 202.568187 
L 61.191538 199.921888 
L 62.649231 198.78776 
L 64.106923 214.287511 
L 65.564615 222.226408 
L 67.022308 219.580109 
L 68.48 219.958152 
L 69.937692 211.641212 
L 71.395385 216.93381 
L 72.853077 235.457904 
L 74.310769 230.921391 
L 75.768462 244.530929 
L 77.226154 239.994416 
L 78.683846 245.665057 
L 80.141538 257.384382 
L 81.599231 253.603954 
L 83.056923 263.433065 
L 84.514615 260.786766 
L 85.972308 264.189151 
L 87.43 255.494168 
L 88.887692 240.750502 
L 90.345385 242.262673 
L 91.803077 221.848366 
L 93.260769 227.519006 
L 94.718462 212.019255 
L 96.176154 229.031177 
L 97.633846 233.945733 
L 99.091538 241.506587 
L 100.549231 243.018758 
L 102.006923 230.543348 
L 103.464615 232.055519 
L 104.922308 244.530929 
L 106.38 240.372459 
L 107.837692 223.738579 
L 109.295385 259.274595 
L 110.753077 260.408723 
L 112.210769 266.079364 
L 113.668462 243.774844 
L 115.126154 236.213989 
L 116.583846 249.823527 
L 118.041538 239.616374 
L 119.499231 238.860288 
L 120.956923 243.018758 
L 122.414615 259.652638 
L 123.872308 258.896552 
L 126.787692 270.615877 
L 128.245385 275.152389 
L 129.703077 270.615877 
L 131.160769 268.725663 
L 132.618462 269.859791 
L 134.076154 267.213492 
L 135.533846 284.9815 
L 136.991538 284.9815 
L 138.449231 289.518013 
L 139.906923 292.164312 
L 141.364615 282.713244 
L 142.822308 291.408227 
L 144.28 283.847372 
L 145.737692 283.847372 
L 147.195385 277.042603 
L 148.653077 292.164312 
L 150.110769 303.883636 
L 151.568462 280.444988 
L 153.026154 289.518013 
L 154.483846 287.249757 
L 155.941538 278.932817 
L 157.399231 267.213492 
L 158.856923 228.653135 
L 160.314615 235.835946 
L 161.772308 240.750502 
L 163.23 224.116622 
L 164.687692 226.006836 
L 166.145385 212.397298 
L 167.603077 208.61687 
L 169.060769 202.94623 
L 170.518462 210.129041 
L 171.976154 203.324272 
L 173.433846 213.531426 
L 174.891538 220.714237 
L 176.349231 210.507084 
L 177.806923 197.275589 
L 179.264615 213.909468 
L 180.722308 213.531426 
L 182.18 214.665554 
L 183.637692 186.31235 
L 185.095385 188.580606 
L 186.553077 227.519006 
L 188.010769 262.67698 
L 189.468462 263.433065 
L 190.926154 257.762424 
L 192.383846 257.006339 
L 193.841538 244.530929 
L 195.299231 246.0431 
L 196.756923 245.287014 
L 198.214615 252.091783 
L 199.672308 245.665057 
L 201.13 241.506587 
L 202.587692 244.908972 
L 204.045385 252.469826 
L 205.503077 264.945236 
L 206.960769 252.469826 
L 208.418462 264.567193 
L 209.876154 257.006339 
L 211.333846 257.384382 
L 212.791538 255.872211 
L 214.249231 254.738082 
L 215.706923 261.164809 
L 217.164615 260.030681 
L 218.622308 266.83545 
L 220.08 263.811108 
L 221.537692 261.920894 
L 222.995385 244.152886 
L 224.453077 248.689399 
L 225.910769 243.774844 
L 227.368462 233.945733 
L 228.826154 241.506587 
L 230.283846 243.396801 
L 231.741538 243.396801 
L 233.199231 250.579613 
L 234.656923 254.738082 
L 236.114615 257.006339 
L 237.572308 239.238331 
L 239.03 251.713741 
L 240.487692 251.713741 
L 241.945385 249.067442 
L 243.403077 244.152886 
L 244.860769 262.67698 
L 246.318462 244.152886 
L 247.776154 243.774844 
L 249.233846 248.311356 
L 250.691538 248.311356 
L 252.149231 236.592032 
L 253.606923 228.275092 
L 255.064615 239.616374 
L 256.522308 230.921391 
L 257.98 241.128544 
L 259.437692 241.506587 
L 260.895385 241.128544 
L 262.353077 246.421143 
L 263.810769 244.530929 
L 265.268462 256.628296 
L 266.726154 230.165306 
L 268.183846 230.921391 
L 269.641538 190.47082 
L 271.099231 174.593025 
L 272.556923 169.67847 
L 274.014615 167.410214 
L 275.472308 177.99541 
L 276.93 172.702812 
L 278.387692 165.141957 
L 279.845385 153.422633 
L 281.303077 162.117615 
L 282.760769 182.909965 
L 284.218462 179.885623 
L 285.676154 176.483239 
L 287.133846 199.165802 
L 288.591538 157.20306 
L 290.049231 157.959146 
L 291.506923 147.373949 
L 292.964615 140.56918 
L 294.422308 137.922881 
L 295.88 129.983984 
L 297.337692 131.118112 
L 298.795385 136.41071 
L 300.253077 137.922881 
L 301.710769 131.874198 
L 303.168462 136.788753 
L 304.626154 134.898539 
L 306.083846 133.764411 
L 307.541538 133.008326 
L 308.999231 133.008326 
L 310.456923 130.362027 
L 311.914615 133.764411 
L 314.83 148.130035 
L 316.287692 142.459394 
L 317.745385 94.826011 
L 319.203077 96.338182 
L 320.660769 76.301918 
L 322.118462 85.752986 
L 325.033846 100.118609 
L 326.491538 86.887114 
L 327.949231 96.716225 
L 329.406923 104.277079 
L 330.864615 84.618857 
L 332.322308 96.716225 
L 333.78 92.935797 
L 335.237692 85.374943 
L 336.695385 90.289498 
L 338.153077 86.509071 
L 339.610769 81.216473 
L 341.068462 69.119106 
L 342.526154 65.338679 
L 343.983846 74.789747 
L 345.441538 73.655618 
L 346.899231 86.887114 
L 348.356923 67.228892 
L 349.814615 108.813592 
L 351.272308 122.045087 
L 352.73 81.216473 
L 354.187692 75.545832 
L 355.645385 73.277576 
L 357.103077 87.265156 
L 358.560769 91.801669 
L 360.018462 92.557755 
L 361.476154 91.423626 
L 364.391538 70.253234 
L 365.849231 82.728644 
L 367.306923 90.667541 
L 368.764615 93.31384 
L 370.222308 86.131028 
L 371.68 108.813592 
L 373.137692 108.057506 
L 374.595385 101.252737 
L 376.053077 107.679463 
L 377.510769 114.862275 
L 378.968462 116.752489 
L 380.426154 124.313343 
L 381.883846 121.667044 
L 383.341538 126.203557 
L 384.799231 117.130532 
L 386.256923 148.88612 
L 387.714615 156.446975 
L 389.172308 121.289001 
L 390.63 122.42313 
L 392.087692 80.460387 
L 393.545385 34.717218 
L 395.003077 27.156364 
L 396.460769 42.278073 
L 397.918462 77.058003 
L 399.376154 67.984978 
L 400.833846 83.106687 
L 403.749231 65.716721 
L 406.664615 75.167789 
L 408.122308 75.167789 
L 409.58 77.814088 
L 411.037692 78.570174 
L 412.495385 77.436046 
L 413.953077 76.67996 
L 415.410769 71.009319 
L 416.868462 52.485226 
L 418.326154 38.497645 
L 419.783846 63.826508 
L 421.241538 59.668038 
L 422.699231 59.668038 
L 424.156923 56.265653 
L 425.614615 54.37544 
L 427.072308 51.351098 
L 428.53 64.582593 
L 428.53 64.582593 
" style="fill:none;stroke:#0000ff;stroke-linecap:square;stroke-width:1.5;"/>
   </g>
   <g id="patch_3">
    <path d="M 30.58 317.72 
L 30.58 13.32 
" style="fill:none;stroke:#000000;stroke-linecap:square;stroke-linejoin:miter;stroke-width:0.8;"/>
   </g>
   <g id="patch_4">
    <path d="M 447.48 317.72 
L 447.48 13.32 
" style="fill:none;stroke:#000000;stroke-linecap:square;stroke-linejoin:miter;stroke-width:0.8;"/>
   </g>
   <g id="patch_5">
    <path d="M 30.58 317.72 
L 447.48 317.72 
" style="fill:none;stroke:#000000;stroke-linecap:square;stroke-linejoin:miter;stroke-width:0.8;"/>
   </g>
   <g id="patch_6">
    <path d="M 30.58 13.32 
L 447.48 13.32 
" style="fill:none;stroke:#000000;stroke-linecap:square;stroke-linejoin:miter;stroke-width:0.8;"/>
   </g>
  </g>
 </g>
 <defs>
  <clipPath id="p19955fdd7a">
   <rect height="304.4" width="416.9" x="30.58" y="13.32"/>
  </clipPath>
 </defs>
</svg>
